simulation
nRows=75
nColumns=15
endheader
time  TH_x TH_y TH_z SC_y  SC_z  SC_x  AC_y  AC_z  AC_x  GH_y  GH_z  GH_yy  EL_x  PS_y
0.000000  0.000000  0.000000  0.000000  -29.781324  -2.321032  -11.110222  53.784274  13.283534  1.232935  18.046581  11.966161  6.008916  25.644102  0.000000
0.010000  0.000000  0.000000  0.000000  -29.778827  -2.314173  -11.062082  53.781183  13.322674  1.256310  18.040669  12.010166  5.998139  25.643403  0.000000
0.020000  0.000000  0.000000  0.000000  -29.777175  -2.308044  -11.007976  53.777243  13.365919  1.283793  18.032870  12.065200  5.984939  25.641946  0.000000
0.030000  0.000000  0.000000  0.000000  -29.789003  -2.255931  -10.992916  53.827542  13.192280  1.365079  18.070299  12.618458  5.786031  25.575365  0.000000
0.040000  0.000000  0.000000  0.000000  -29.789585  -2.244527  -10.929166  53.819760  13.247381  1.391631  18.060715  12.680842  5.771533  25.572669  0.000000
0.050000  0.000000  0.000000  0.000000  -29.791228  -2.236351  -10.858317  53.811146  13.306104  1.424735  18.048445  12.757431  5.753196  25.568998  0.000000
0.060000  0.000000  0.000000  0.000000  -29.829780  -2.201313  -10.904916  53.851182  13.078923  1.452940  18.069380  13.507642  5.497196  25.488664  0.000000
0.070000  0.000000  0.000000  0.000000  -29.828948  -2.187216  -10.822848  53.841357  13.150514  1.487268  18.056668  13.586970  5.478899  25.485528  0.000000
0.080000  0.000000  0.000000  0.000000  -29.854476  -2.180501  -10.806731  53.841623  13.013157  1.509488  18.067128  14.182146  5.228865  25.423579  0.000000
0.090000  0.000000  0.000000  0.000000  -29.854077  -2.162216  -10.714356  53.829886  13.094602  1.547231  18.051936  14.271765  5.207845  25.419729  0.000000
0.100000  0.000000  0.000000  0.000000  -29.876047  -2.141391  -10.703550  53.835409  12.935414  1.573596  18.042921  14.917877  4.894843  25.350752  0.000000
0.110000  0.000000  0.000000  0.000000  -29.875691  -2.121395  -10.599717  53.822116  13.026918  1.616550  18.025569  15.017786  4.871111  25.346687  0.000000
0.120000  0.000000  0.000000  0.000000  -29.941251  -2.173110  -10.470451  53.731386  13.088973  1.684663  17.931371  15.400971  4.707869  25.263218  0.000000
0.130000  0.000000  0.000000  0.000000  -29.934676  -2.143706  -10.360311  53.723264  13.184601  1.733245  17.912451  15.518597  4.680560  25.260432  0.000000
0.140000  0.000000  0.000000  0.000000  -29.931360  -2.035544  -10.464815  53.813338  12.850559  1.838873  17.791181  16.509108  4.204050  25.188245  0.000000
0.150000  0.000000  0.000000  0.000000  -29.931010  -2.007488  -10.341694  53.795957  12.961617  1.886760  17.769307  16.628150  4.175452  25.182545  0.000000
0.160000  0.000000  0.000000  0.000000  -29.931221  -1.978889  -10.322577  53.797408  12.809345  1.939940  17.672712  17.398029  3.726605  25.102175  0.000000
0.170000  0.000000  0.000000  0.000000  -29.931821  -1.948187  -10.189967  53.778241  12.929005  1.991683  17.649296  17.525095  3.695935  25.096668  0.000000
0.180000  0.000000  0.000000  0.000000  -29.931487  -1.917432  -10.158765  53.777252  12.778745  2.044211  17.555997  18.311449  3.185685  25.014129  0.000000
0.190000  0.000000  0.000000  0.000000  -29.931623  -1.884253  -10.017107  53.757099  12.906742  2.099635  17.531521  18.446205  3.153351  25.008938  0.000000
0.200000  0.000000  0.000000  0.000000  -29.935451  -1.854041  -9.964786  53.754305  12.782510  2.182778  17.421776  19.240485  2.647671  24.931583  0.000000
0.210000  0.000000  0.000000  0.000000  -29.936595  -1.815753  -9.816157  53.731542  12.918614  2.238410  17.395107  19.382550  2.613419  24.925294  0.000000
0.220000  0.000000  0.000000  0.000000  -29.928185  -1.780966  -9.773443  53.736485  12.794168  2.306990  17.276909  20.211444  2.056023  24.840177  0.000000
0.230000  0.000000  0.000000  0.000000  -29.929395  -1.738835  -9.617759  53.712036  12.937827  2.363902  17.248978  20.359797  2.020423  24.833753  0.000000
0.240000  0.000000  0.000000  0.000000  -29.946050  -1.724690  -8.227542  53.055132  12.240552  0.417233  22.628197  21.052219  -4.517132  24.548640  0.000000
0.250000  0.000000  0.000000  0.000000  -29.949729  -1.676667  -8.067174  53.029148  12.388655  0.477493  22.592587  21.207387  -4.549433  24.544330  0.000000
0.260000  0.000000  0.000000  0.000000  -29.919514  -1.614302  -8.010715  53.007126  12.303859  0.582115  22.324292  22.081239  -4.858440  24.467880  0.000000
0.270000  0.000000  0.000000  0.000000  -29.921949  -1.564544  -7.844493  52.980550  12.458377  0.643570  22.286672  22.241302  -4.892543  24.462471  0.000000
0.280000  0.000000  0.000000  0.000000  -29.885939  -1.519202  -7.802105  52.979096  12.388986  0.718179  21.971567  23.123136  -5.258438  24.361316  0.000000
0.290000  0.000000  0.000000  0.000000  -29.889292  -1.465787  -7.631406  52.951313  12.548992  0.779598  21.932529  23.287157  -5.293547  24.355992  0.000000
0.300000  0.000000  0.000000  0.000000  -29.857161  -1.425982  -7.587696  52.977197  12.502884  0.839211  21.609761  24.174298  -5.685448  24.259897  0.000000
0.310000  0.000000  0.000000  0.000000  -29.860293  -1.370200  -7.412816  52.949342  12.667349  0.901627  21.570292  24.342009  -5.721163  24.255100  0.000000
0.320000  0.000000  0.000000  0.000000  -29.830702  -1.331046  -7.369209  52.998837  12.642180  0.945494  21.250087  25.242711  -6.132643  24.155271  0.000000
0.330000  0.000000  0.000000  0.000000  -29.833667  -1.273075  -7.191239  52.971147  12.810056  1.008500  21.210626  25.413099  -6.168614  24.151135  0.000000
0.340000  0.000000  0.000000  0.000000  -29.814322  -1.229604  -7.141833  53.040204  12.807465  1.050572  20.914522  26.314773  -6.576981  24.054094  0.000000
0.350000  0.000000  0.000000  0.000000  -29.817926  -1.168390  -6.960950  53.011503  12.979396  1.112753  20.874084  26.488248  -6.613512  24.049559  0.000000
0.360000  0.000000  0.000000  0.000000  -29.796446  -1.121287  -6.925410  53.106953  12.991543  1.125468  20.585747  27.413577  -7.044184  23.937164  0.000000
0.370000  0.000000  0.000000  0.000000  -29.799693  -1.058604  -6.742639  53.078633  13.165708  1.187772  20.545730  27.588441  -7.080625  23.933276  0.000000
0.380000  0.000000  0.000000  0.000000  -29.788845  -1.007835  -6.695208  53.183918  13.205198  1.200515  20.288698  28.509184  -7.496350  23.822158  0.000000
0.390000  0.000000  0.000000  0.000000  -29.792698  -0.942258  -6.510811  53.155040  13.382189  1.261497  20.248058  28.685934  -7.533032  23.817878  0.000000
0.400000  0.000000  0.000000  0.000000  -29.781000  -0.887580  -6.482014  53.287558  13.435449  1.240096  20.005638  29.628880  -7.968732  23.684672  0.000000
0.410000  0.000000  0.000000  0.000000  -29.784638  -0.820551  -6.296599  53.259129  13.613972  1.300609  19.965522  29.806096  -8.005112  23.680953  0.000000
0.420000  0.000000  0.000000  0.000000  -29.777960  -0.769265  -6.277437  53.412869  13.688996  1.246530  19.754442  30.752590  -8.460742  23.533944  0.000000
0.430000  0.000000  0.000000  0.000000  -29.781368  -0.700901  -6.090920  53.384807  13.869014  1.306677  19.714899  30.930171  -8.496715  23.530820  0.000000
0.440000  0.000000  0.000000  0.000000  -29.785568  -0.641735  -6.061561  53.546571  13.970607  1.246606  19.541380  31.869399  -8.941880  23.380994  0.000000
0.450000  0.000000  0.000000  0.000000  -29.789557  -0.572358  -5.874955  53.518300  14.151445  1.305480  19.501788  32.046686  -8.977630  23.377684  0.000000
0.460000  0.000000  0.000000  0.000000  -29.794565  -0.523083  -5.865013  53.701294  14.282406  1.188836  19.365411  32.990575  -9.464945  23.187839  0.000000
0.470000  0.000000  0.000000  0.000000  -29.799361  -0.453543  -5.678530  53.673265  14.463086  1.247401  19.326602  33.166765  -9.500065  23.185750  0.000000
0.480000  0.000000  0.000000  0.000000  -29.831214  -0.395276  -5.628017  53.844634  14.618351  1.173171  19.224504  34.068240  -9.929420  23.032743  0.000000
0.490000  0.000000  0.000000  0.000000  -29.836675  -0.324260  -5.441969  53.815779  14.800030  1.229173  19.184562  34.244062  -9.964531  23.029023  0.000000
0.500000  0.000000  0.000000  0.000000  -29.869526  -0.269586  -5.398543  54.003879  14.979890  1.126708  19.093486  35.133861  -10.391417  22.842809  0.000000
0.510000  0.000000  0.000000  0.000000  -29.876866  -0.197806  -5.212706  53.973816  15.162238  1.180789  19.052632  35.308966  -10.426437  22.838552  0.000000
0.520000  0.000000  0.000000  0.000000  -29.926616  -0.164584  -5.176704  54.181400  15.378603  1.037117  18.997923  36.198359  -10.889190  22.626647  0.000000
0.530000  0.000000  0.000000  0.000000  -29.934648  -0.093687  -4.991913  54.151300  15.559955  1.090341  18.957542  36.370788  -10.923470  22.623019  0.000000
0.540000  0.000000  0.000000  0.000000  -30.005881  -0.068692  -4.927402  54.344817  15.809859  0.955691  18.938036  37.205876  -11.368460  22.426847  0.000000
0.550000  0.000000  0.000000  0.000000  -30.015038  0.001916  -4.742701  54.314046  15.991383  1.007918  18.897083  37.377166  -11.402517  22.422776  0.000000
0.560000  0.000000  0.000000  0.000000  -30.104947  0.018299  -4.668347  54.508089  16.268440  0.866663  18.905339  38.183857  -11.851324  22.214276  0.000000
0.570000  0.000000  0.000000  0.000000  -30.115524  0.088907  -4.483850  54.476287  16.450053  0.917670  18.863603  38.353771  -11.885076  22.209861  0.000000
0.580000  0.000000  0.000000  0.000000  -30.317204  0.018035  -4.568004  54.145475  17.208287  0.114246  20.595587  39.019988  -14.122170  21.896156  0.000000
0.590000  0.000000  0.000000  0.000000  -30.329253  0.086930  -4.381560  54.115109  17.386987  0.172351  20.549496  39.192317  -14.153679  21.891726  0.000000
0.600000  0.000000  0.000000  0.000000  -30.378187  0.143472  -4.230929  54.285096  17.604037  0.235279  20.442025  39.944691  -14.387295  21.614912  0.000000
0.610000  0.000000  0.000000  0.000000  -30.392524  0.213223  -4.047001  54.253253  17.783232  0.287987  20.394846  40.113492  -14.418194  21.611407  0.000000
0.620000  0.000000  0.000000  0.000000  -30.493752  0.257899  -3.917121  54.440348  18.082350  0.241197  20.300537  40.822840  -14.678235  21.395548  0.000000
0.630000  0.000000  0.000000  0.000000  -30.509579  0.326237  -3.733510  54.407903  18.261198  0.293241  20.253295  40.990055  -14.709148  21.392382  0.000000
0.640000  0.000000  0.000000  0.000000  -30.640256  0.343919  -3.585854  54.577874  18.581339  0.253839  20.187015  41.654330  -14.983881  21.200808  0.000000
0.650000  0.000000  0.000000  0.000000  -30.656197  0.411464  -3.402203  54.545308  18.760274  0.305354  20.139731  41.820354  -15.014770  21.197191  0.000000
0.660000  0.000000  0.000000  0.000000  -30.801157  0.419950  -3.259352  54.717908  19.113362  0.245782  20.111407  42.459626  -15.334126  20.970603  0.000000
0.670000  0.000000  0.000000  0.000000  -30.819273  0.487167  -3.076202  54.683378  19.291730  0.296088  20.063313  42.623731  -15.364846  20.967009  0.000000
0.680000  0.000000  0.000000  0.000000  -30.969216  0.493299  -2.917392  54.824876  19.661236  0.252466  20.076993  43.219290  -15.707642  20.750274  0.000000
0.690000  0.000000  0.000000  0.000000  -30.988093  0.559899  -2.734540  54.789450  19.839070  0.302210  20.028499  43.381914  -15.738173  20.746492  0.000000
0.700000  0.000000  0.000000  0.000000  -31.137024  0.570279  -2.567777  54.906138  20.222138  0.270464  20.079181  43.945882  -16.108185  20.519253  0.000000
0.710000  0.000000  0.000000  0.000000  -31.156626  0.636240  -2.385317  54.869820  20.399315  0.319665  20.030235  44.106982  -16.138443  20.515365  0.000000
0.720000  0.000000  0.000000  0.000000  -31.388000  0.567624  -2.512927  54.538027  21.289647  0.020972  21.174430  44.529096  -17.713118  20.180508  0.000000
0.730000  0.000000  0.000000  0.000000  -31.409995  0.633972  -2.331229  54.501302  21.463540  0.072420  21.121518  44.691182  -17.741122  20.176894  0.000000
0.740000  0.000000  0.000000  0.000000  -31.431414  0.678766  -2.063474  54.475576  21.757139  0.165985  21.000039  45.138151  -17.863630  20.030009  0.000000
